Coordinates
version=1
nRows=10
nColumns=33
inDegrees=yes

Units are S.I. units (second, meters, Newtons, ...)
Angles are in degrees.

endheader
time	ground_thorax_rot_x	ground_thorax_rot_y	ground_thorax_rot_z	ground_thorax_tx	ground_thorax_ty	ground_thorax_tz	clav_prot_r	clav_elev_r	scapula_abduction_r	scapula_elevation_r	scapula_upward_rot_r	scapula_winging_r	shoulder_elv_r	plane_of_elev_r	axial_rot_r	elbow_flexion_r	pro_sup_r	wrist_flex_r	wrist_dev_r	clav_prot_l	clav_elev_l	scapula_abduction_l	scapula_elevation_l	scapula_upward_rot_l	scapula_winging_l	shoulder_elv_l	plane_of_elev_l	axial_rot_l	elbow_flexion_l	pro_sup_l	wrist_flex_l	wrist_dev_l
     10.59000000	    -38.27542715	     -6.10461918	     13.68755138	   -119.74538208	    787.80611655	      4.63887336	      2.64556027	    -45.00000000	     44.91176093	    -45.00000000	     -8.45074508	  -1538.98723652	  -2636.04790230	    150.26969381	   -113.53217397	   1091.10109875	     26.70265169	     18.60861468	     10.17635665	     19.07889850	     41.84218947	    -42.89341946	    -45.00000000	    -37.30272199	   2239.01842247	  -4251.19387411	     26.69684829	    -24.65842368	    729.89306826	     25.05704587	      6.69394611	    -19.48789577
     10.60000000	    -38.29886493	     -5.79365804	     13.42895697	   -122.45421141	    789.14477980	      4.45332336	      2.73220780	    -45.00000000	     45.00000000	    -45.00000000	     -8.06019852	  -1539.13013522	  -2635.83544681	    150.27392302	   -114.29070807	   1091.00528028	     26.55869707	     18.60960257	     10.08573754	     18.48782508	     41.74213166	    -42.60238667	    -45.00000000	    -36.74590509	   2239.39517477	  -4251.16471562	     26.83362494	    -25.42681763	    729.93005028	     24.81680169	      6.99281992	    -19.64944875
     10.61000000	    -37.88398138	     -6.88930756	     14.99711910	   -125.21873630	    790.52373225	      4.28643964	      3.36892297	    -45.00000000	     43.92886874	    -45.00000000	    -11.18564550	  -1538.94861583	  -2635.35677226	    149.77869975	   -113.83033856	   1091.16933063	     26.33234101	     18.60007668	      9.67490033	     18.86828857	     40.16722165	    -42.39170222	    -45.00000000	    -39.99378357	   2239.00130714	  -4249.93577490	     27.19676581	    -22.57797006	    729.87304929	     23.50750583	      7.52895334	    -19.77843096
     10.62000000	    -37.82022375	     -7.07629486	     15.34009358	   -128.02723600	    791.94559771	      4.14144700	      3.42646717	    -45.00000000	     43.40488142	    -45.00000000	    -12.44419292	  -1538.71860929	  -2635.01221009	    149.56576280	   -114.34567420	   1091.17209329	     26.07094366	     18.62994190	      9.64954176	     18.63751710	     40.08646343	    -42.20396806	    -45.00000000	    -40.23239513	   2239.27937914	  -4249.78339918	     27.14025468	    -22.84396986	    729.84790736	     22.57389090	      7.64446991	    -19.80551906
     10.63000000	    -37.82814272	     -7.00799434	     15.38914562	   -130.87505735	    793.40879091	      4.02169704	      3.71896199	    -45.00000000	     43.34364041	    -45.00000000	    -12.78265051	  -1538.96277636	  -2634.84103282	    149.33791725	   -114.50070247	   1091.18109726	     25.91285376	     18.66860154	      9.72585980	     18.73529359	     40.03039878	    -42.14291003	    -45.00000000	    -40.13083416	   2239.61184563	  -4249.74913101	     27.03260747	    -23.47746538	    729.86116004	     21.76619602	      7.33731046	    -19.71162671
     10.64000000	    -38.05538207	     -6.32669477	     14.49919717	   -133.75238707	    794.91328969	      3.92969826	      2.99956159	    -45.00000000	     43.59739287	    -45.00000000	    -11.87069920	  -1538.86346317	  -2634.52150395	    149.49842241	   -115.41926500	   1091.27830395	     25.71657455	     18.76525510	      9.76310833	     18.12277856	     41.30574624	    -41.95071126	    -45.00000000	    -37.82047453	   2240.22588362	  -4250.28568417	     26.58793932	    -25.36580250	    729.91399941	     21.50079803	      7.47752747	    -19.85132095
     10.65000000	    -37.76097669	     -7.07666205	     15.68922377	   -136.65985126	    796.45739506	      3.86669627	      3.90866137	    -45.00000000	     42.92776753	    -45.00000000	    -13.86886771	  -1539.15147615	  -2634.24738094	    149.02363650	   -114.72595552	   1091.32236779	     25.54272015	     18.76022543	      9.63900667	     18.55109135	     39.91633414	    -41.96406176	    -45.00000000	    -40.48784170	   2240.11887843	  -4249.45218873	     26.89718833	    -23.63963519	    729.84946816	     20.01044169	      7.33205650	    -19.73139072
     10.66000000	    -37.76539598	     -7.03816095	     15.74690449	   -139.58342143	    798.03939170	      3.83223253	      3.95601976	    -45.00000000	     42.67253277	    -45.00000000	    -14.49173697	  -1539.11411476	  -2633.91515032	    148.90736483	   -115.12581972	   1091.36040923	     25.25028919	     18.79532646	      9.56339697	     18.43006132	     39.77354547	    -41.86380370	    -45.00000000	    -40.54117238	   2240.44863896	  -4249.32307592	     26.88478269	    -24.05076176	    729.86385782	     18.92163075	      7.46385449	    -19.76834053
     10.67000000	    -37.73921825	     -7.04628012	     15.84406502	   -142.51834825	    799.65601930	      3.82515127	      4.01156850	    -45.00000000	     42.45096066	    -45.00000000	    -15.04521636	  -1539.16304734	  -2633.58527520	    148.77090897	   -115.34578632	   1091.37703742	     24.96477457	     18.82811194	      9.50542313	     18.29107868	     39.70500264	    -41.78115025	    -45.00000000	    -40.67666387	   2240.70049457	  -4249.20174201	     26.82013888	    -24.27859773	    729.82446353	     17.78432184	      7.56334554	    -19.78814357
     10.68000000	    -37.73494447	     -7.01418633	     15.87132376	   -145.45665014	    801.30421743	      3.84348798	      4.05557505	    -45.00000000	     42.37837717	    -45.00000000	    -15.37055719	  -1539.31568473	  -2633.27809983	    148.67345468	   -115.55594891	   1091.45845855	     24.67937827	     18.88913008	      9.53156030	     18.18704860	     39.73883487	    -41.74793295	    -45.00000000	    -40.60784539	   2241.00666921	  -4249.20348050	     26.67517788	    -24.69603332	    729.78444225	     16.72834253	      7.49138920	    -19.77951300
